<svg width="1099" height="723" viewBox="0 0 1099 723" fill="none" xmlns="http://www.w3.org/2000/svg">
<path d="M569 176C558.297 176.691 547.909 170.338 537.222 169.667C524.785 168.885 511.448 172.879 500.278 178.056C480.332 187.299 462.316 206.837 459 229.222C454.585 259.026 473.087 280.514 500.278 290.389C526.581 299.941 558.08 303.747 586 303.5C605.42 303.328 633.491 301.739 648.667 287.444C661.817 275.058 665.202 255.696 665.556 238.444C665.869 223.133 661.536 212.553 654.222 199.389C646.866 186.148 639.044 179.982 624 177.556C608.549 175.063 593.849 169 578.056 169C569.37 169 560.685 169 552 169" stroke="#CF0FD9" stroke-width="3" stroke-linecap="round"/>
<path d="M525 210C522.105 212.606 518.89 214.633 516.444 217.778C514.636 220.102 515.363 221.937 518.111 223.556C524.331 227.22 543.568 226.661 542.722 215.667C542.239 209.379 526.728 210.467 523 211" stroke="#CF0FD9" stroke-width="3" stroke-linecap="round"/>
<path d="M606 213C595.77 213 586.522 213.648 578 220.222C573.025 224.06 578.869 229.651 582.778 231.556C589.481 234.821 597.22 236.082 604.556 234.389C611.735 232.732 627.214 227.325 618.5 218.611C611.258 211.369 594.63 215.041 586 216" stroke="#CF0FD9" stroke-width="3" stroke-linecap="round"/>
<path d="M519 216C512.291 215.329 503.819 207.675 497.944 204.444C493.331 201.907 490.552 198.552 487 195" stroke="#CF0FD9" stroke-width="3" stroke-linecap="round"/>
<path d="M544 220C550 220 556 220 562 220C566.287 220 569.261 223 573 223" stroke="#CF0FD9" stroke-width="3" stroke-linecap="round"/>
<path d="M623 223C629.608 223 636.366 217.704 642.5 215.444C646.874 213.833 648.928 210 654 210" stroke="#CF0FD9" stroke-width="3" stroke-linecap="round"/>
<path d="M558 304V537" stroke="#CF0FD9" stroke-width="3" stroke-linecap="round"/>
<path d="M560 304C557.545 304.246 555.018 305.99 552.889 307C534.371 315.784 515.179 323.034 496.444 331.333C466.599 344.555 436.733 358.029 407.333 372.222C402.543 374.535 397.957 377.141 393 379" stroke="#CF0FD9" stroke-width="3" stroke-linecap="round"/>
<path d="M566 305C571.383 319.193 583.435 332.226 592.778 343.889C601.081 354.254 608.918 366.358 619 375" stroke="#CF0FD9" stroke-width="3" stroke-linecap="round"/>
<path d="M551 541C547.729 542.635 544.617 544.432 541.556 546.444C528.849 554.798 515.518 561.581 501.778 568.111C482.186 577.423 461.935 584.878 441.889 593.111C433.923 596.383 426.21 600.537 418 603" stroke="#CF0FD9" stroke-width="3" stroke-linecap="round"/>
<path d="M557 540C559.133 541.896 563.065 541.773 565.667 542.667C576.184 546.28 586.242 551.949 596.278 556.722C606.804 561.729 617.635 567.977 627 575" stroke="#CF0FD9" stroke-width="3" stroke-linecap="round"/>
<path d="M367 363C347 363 327 363 307 363C298.454 363 297.634 366.455 292.222 373.333C288.851 377.619 284.534 382.007 279.222 383.778C275.348 385.069 271.066 385.753 268 389C265.3 391.858 284.824 394.911 287.222 395.222C294.539 396.173 300.671 397 308.333 397C316.093 397 323.852 397 331.611 397C342.379 397 354.855 398.87 365.444 396.944C369.023 396.294 369.961 390.453 373 388.5C376.573 386.203 379.505 382.495 382.5 379.5C385.934 376.066 389.928 374.468 393.556 371.5C395.387 370.002 397.424 368.755 399.444 367.556C404.235 364.711 391.197 363.77 389.667 363.5C378.197 361.476 366.618 362 355 362" stroke="#0F96D9" stroke-width="3" stroke-linecap="round"/>
<path d="M303 362C300.141 358.784 307.86 349.707 308 345.778C308.153 341.486 310 337.808 310 333.556C310 330.224 310.809 325.35 312 322.222C313.45 318.415 312.841 313.51 315 310.056C315.869 308.664 315.729 307.97 316.056 306.5C316.607 304.018 323.201 305 325 305C341.13 305 357.259 305 373.389 305C384.759 305 396.13 305 407.5 305C409.543 305 417.697 303.781 418.778 305.222C421.792 309.242 415.496 318.53 414.944 322.944C414.492 326.564 410.791 329.898 409.778 333.444C408.588 337.607 407.109 339.218 404.556 342.5C402.693 344.894 405.162 348.567 403 351C401.136 353.097 402.079 357.302 401 360" stroke="#0F96D9" stroke-width="3" stroke-linecap="round"/>
<path d="M331 318C335.528 318.503 341 332.098 341 336" stroke="#0F96D9" stroke-width="3" stroke-linecap="round"/>
<path d="M352 327C355.853 324.003 359.577 335.459 360 338" stroke="#0F96D9" stroke-width="3" stroke-linecap="round"/>
<path d="M379 324C379.415 328.151 382 331.672 382 336" stroke="#0F96D9" stroke-width="3" stroke-linecap="round"/>
<path d="M313 373H318" stroke="#0F96D9" stroke-width="3" stroke-linecap="round"/>
<path d="M331 374H335" stroke="#0F96D9" stroke-width="3" stroke-linecap="round"/>
<path d="M345 375C346.482 376.318 348.114 376 350 376" stroke="#0F96D9" stroke-width="3" stroke-linecap="round"/>
<path d="M521 267C523.603 264.687 529.188 268.846 532 270C538.257 272.567 545.667 271.208 552.056 273.444C561.208 276.648 576.477 276.381 586 274" stroke="#CF0FD9" stroke-width="3" stroke-linecap="round"/>
<path d="M303 383C307.18 382.477 311.447 381 316 381" stroke="#0F96D9" stroke-width="3" stroke-linecap="round"/>
<path d="M322 384H332" stroke="#0F96D9" stroke-width="3" stroke-linecap="round"/>
<path d="M342 386H350" stroke="#0F96D9" stroke-width="3" stroke-linecap="round"/>
<path d="M623 392C623 389.569 621 388.248 621 385.778C621 383.37 621 380.963 621 378.556C621 373.003 622.739 368.21 623 363C623.251 357.978 624.83 351.677 626.5 347C628.069 342.606 631.92 338 637 338C645.333 338 657.796 335.776 665 339.778C670.932 343.073 674.1 344.834 676.556 351.5C679.149 358.54 675 362.943 675 370C675 375.262 672 379.614 672 385C672 389.481 672 393.963 672 398.444C672 402.78 669 406.53 669 411C669 418.589 656.933 419 651.056 419C642.978 419 627.279 422.129 623 412.5C620.708 407.343 619 405.762 619 399.778C619 395.29 621.037 391.623 622.556 387.5C623.164 385.849 623.805 381.597 625 381" stroke="#0F96D9" stroke-width="3" stroke-linecap="round"/>
<path d="M636 352C636 358 636 364 636 370C636 374.449 634 378.415 634 383.222C634 388.222 634 393.222 634 398.222C634 405.073 637.792 405 644 405C647.981 405 652.025 405.209 656 405C663.011 404.631 660 374.003 660 370.222C660 367.705 661.401 357.954 658.556 357.222C655.045 356.32 651.294 357.869 648 356.222C645.552 354.998 643.734 355 641 355" stroke="#0F96D9" stroke-width="3" stroke-linecap="round"/>
<path d="M227 135C226.545 127.263 223 119.89 223 111.944C223 103.296 223 94.6481 223 86C223 82.1403 220.564 65.6864 223.722 63.5C229.927 59.2043 239.604 62.3729 243 68.2222C248.323 77.3901 254.232 87.4984 251.389 98.5555C248.779 108.704 240.898 110.615 231.667 110C230.359 109.913 223.985 105.614 225.222 104.222C226.656 102.609 231.404 107.701 232.056 108.556C236.926 114.948 240.951 122.771 248 127" stroke="#0F96D9" stroke-width="3" stroke-linecap="round"/>
<path d="M271 112C272.344 110.925 288.543 104.071 282 100.222C276.186 96.8022 266.645 101.956 262.556 105.5C256.788 110.498 259.898 124.614 264 129.889C270.188 137.845 277.6 136 287 136" stroke="#0F96D9" stroke-width="3" stroke-linecap="round"/>
<path d="M304 102C304.855 97.7273 311.95 98.7193 315.056 99.5555C323.524 101.835 322 110.537 322 117.444C322 120.444 322 123.444 322 126.444C322 128.751 321.743 123.359 321.389 122.611C319.629 118.896 313.279 120 310.056 120C304.476 120 299.371 121.073 295.222 125.222C292.882 127.562 289.712 133.634 294 135.778C298.477 138.016 307.909 136 313 136C319.437 136 322.945 135.069 327 130" stroke="#0F96D9" stroke-width="3" stroke-linecap="round"/>
<path d="M362 103C358.114 100.31 348.715 99 343.944 99C336.275 99 331.053 106.613 330.111 113.444C329.216 119.932 333.312 126.973 340.111 127.778C345.125 128.372 356.026 129.974 360 126" stroke="#0F96D9" stroke-width="3" stroke-linecap="round"/>
<path d="M388 59C380.298 77.2933 381 98.5467 381 118" stroke="#0F96D9" stroke-width="3" stroke-linecap="round"/>
<path d="M376 74C378.4 72.0797 383.024 73 386 73" stroke="#0F96D9" stroke-width="3" stroke-linecap="round"/>
<path d="M383 72C383.189 70.484 392.524 72 395 72" stroke="#0F96D9" stroke-width="3" stroke-linecap="round"/>
<path d="M420 60C425.067 55.496 436.33 62 442 62" stroke="#0F96D9" stroke-width="3" stroke-linecap="round"/>
<path d="M438 62C438 78.9259 438 95.8519 438 112.778C438 118.985 436.682 127.213 429 127C417.664 126.685 419 111.959 419 104" stroke="#0F96D9" stroke-width="3" stroke-linecap="round"/>
<path d="M440 60C443.261 63.2612 448.625 62 453 62" stroke="#0F96D9" stroke-width="3" stroke-linecap="round"/>
<path d="M486 66C479.647 66 470.308 70.6917 465.778 75.2222C461.826 79.1735 461.24 82.7691 462.222 88.4444C463.797 97.5425 472.422 96.8463 479.556 99C490.308 102.246 483.702 119.298 477.778 125.222C475.169 127.831 471.433 127 468 127C464.474 127 462.71 125 460 125" stroke="#0F96D9" stroke-width="3" stroke-linecap="round"/>
<path d="M787 113C786.548 117.975 783.773 123.373 781.944 127.944C778.014 137.77 773.548 147.805 769.167 157.444C767.078 162.04 760.349 172.467 761 178C761.147 179.248 774.525 176.425 776.556 176.056C781.74 175.113 787.701 176 793 176" stroke="#0F96D9" stroke-width="3" stroke-linecap="round"/>
<path d="M821 146C821.306 143.553 827.821 143.925 829.778 144C835.879 144.235 837.071 149.953 839 154.389C840.9 158.759 840 164.26 840 169C840 172.598 840.792 181.447 835.778 175C833.801 172.459 831.523 167 828 167C823.362 167 815.485 168.802 814 174C810.883 184.909 831.575 182 838 182" stroke="#0F96D9" stroke-width="3" stroke-linecap="round"/>
<path d="M854 154C854 161.667 854 169.333 854 177C854 179.944 853.982 171.062 854 170C854.069 166.023 855.814 162.579 856 158.667C856.241 153.6 860.295 149.063 862.778 145C864.414 142.323 874.537 144 878 144" stroke="#0F96D9" stroke-width="3" stroke-linecap="round"/>
<path d="M893 146C896.911 146 899.396 147.643 903.111 148.056C910.146 148.837 911 153.871 911 159.556C911 164.084 910 168.32 910 172.778C910 179.403 906.203 179.875 904.778 173.222C901.193 156.493 876 163.996 876 178C876 184.9 896.772 182 903 182" stroke="#0F96D9" stroke-width="3" stroke-linecap="round"/>
<path d="M919 149C925.149 155.149 926.39 164.426 930.556 171.778C932.218 174.711 935.018 185.688 938.222 177.556C942.993 165.445 946.812 157.188 956 148" stroke="#0F96D9" stroke-width="3" stroke-linecap="round"/>
<path d="M971 164C977.327 164 990 166.266 990 156.778C990 148.575 982.483 150.815 976 151C964.622 151.325 960.558 164.762 963.778 173.778C967.767 184.949 979.303 184 989 184" stroke="#0F96D9" stroke-width="3" stroke-linecap="round"/>
<path d="M1037 114C1029.43 115.195 1025.53 130.794 1023 136.944C1019.3 145.934 1015.51 154.593 1012.94 164C1010.72 172.147 1008 179.339 1008 188" stroke="#0F96D9" stroke-width="3" stroke-linecap="round"/>
<path d="M695 454C698.165 451.468 705.541 453 709.167 453C720.722 453 732.278 453 743.833 453C751.556 453 759.278 453 767 453" stroke="#0F96D9" stroke-width="3" stroke-linecap="round"/>
<path d="M740 451V501" stroke="#0F96D9" stroke-width="3" stroke-linecap="round"/>
<path d="M765 479C765 484.894 765.554 491.618 769.222 496.556C773.481 502.289 788.697 498.98 794.056 497.389C805.731 493.923 809.205 488.498 809 477C808.804 466.01 802.406 478.798 801.5 482.722C797.967 498.03 792 514.267 792 530C792 535 792 550 792 545" stroke="#0F96D9" stroke-width="3" stroke-linecap="round"/>
<path d="M831 478C830.685 491.223 828.089 504.135 824.5 516.833C823.43 520.621 820.925 525.327 821.222 529.333C821.779 536.846 825.282 514.821 827.056 507.5C829.507 497.376 832.009 487.229 834 477C834.611 473.862 834.159 465.358 838.5 466.5C842.447 467.539 846.71 469.743 849.222 473C853.148 478.089 859.239 488.452 851 493.222C846.329 495.926 838.196 498.327 835 493" stroke="#0F96D9" stroke-width="3" stroke-linecap="round"/>
<path d="M878 480C879.303 478.697 890.204 470.82 882 470C872.949 469.095 862.119 474.541 857 482C851.643 489.806 855.644 500.491 864.444 503.222C869.178 504.691 873.617 505 878.5 505C881.833 505 882.878 505.129 881 502" stroke="#0F96D9" stroke-width="3" stroke-linecap="round"/>
<path d="M884 474C880.115 474 877.643 475.786 874 477" stroke="#0F96D9" stroke-width="3" stroke-linecap="round"/>
<path d="M883 476C880.338 476.296 879.247 479.654 877 480.778C875.503 481.526 872.703 481.905 871 482C869.036 482.109 868.184 484 866 484C863.042 484 861.409 483.807 859 482" stroke="#0F96D9" stroke-width="3" stroke-linecap="round"/>
<path d="M909 471C904.426 471 893.252 471.677 893 478.222C892.651 487.298 908.013 487.496 914.333 488.222C919.802 488.851 923.818 489.327 920 495C918.003 497.967 915.144 500.123 912 501.778C908.195 503.78 904.268 505 900 505" stroke="#0F96D9" stroke-width="3" stroke-linecap="round"/>
<path d="M958 478C956.726 466.537 930.494 478.635 928.222 485.222C923.044 500.238 943.984 510.806 956 506" stroke="#0F96D9" stroke-width="3" stroke-linecap="round"/>
<path d="M974 480C969.489 485.075 971 495.478 971 501.944C971 507.207 971.067 502.193 971.556 499.611C972.48 494.726 973.056 487.904 975 483.444C980.182 471.557 983.971 472 996 472" stroke="#0F96D9" stroke-width="3" stroke-linecap="round"/>
<path d="M1007 475C1010.05 478.426 1008.46 491.421 1006.56 495.444C1004.87 499.016 1003.18 502.725 1001 506" stroke="#0F96D9" stroke-width="3" stroke-linecap="round"/>
<path d="M1024 479C1024 495.83 1015 510.903 1015 527.444C1015 532.337 1012.5 535.802 1012.06 540.5C1011.67 544.561 1011.3 550.55 1009 554" stroke="#0F96D9" stroke-width="3" stroke-linecap="round"/>
<path d="M1027 477C1031.84 477 1042 475.73 1044.78 481C1048.72 488.484 1042.58 492.493 1040 498.667C1037.77 503.994 1037.9 505 1032 505C1028.02 505 1024.53 504.766 1021 503" stroke="#0F96D9" stroke-width="3" stroke-linecap="round"/>
<path d="M1080 421C1077.56 422.218 1076.74 426.967 1075.89 429.222C1073.54 435.422 1069.55 441.581 1068.11 448.056C1065.82 458.388 1065 469.226 1065 479.778C1065 485.836 1067 503.999 1061 507" stroke="#0F96D9" stroke-width="3" stroke-linecap="round"/>
<path d="M1067 445C1072.95 445.496 1079.29 447.37 1085 449" stroke="#0F96D9" stroke-width="3" stroke-linecap="round"/>
<path d="M2 221C14.0283 221 25.7498 226 38 226" stroke="#0F96D9" stroke-width="3" stroke-linecap="round"/>
<path d="M21 226C20.6463 242.625 16.2773 258.526 15.1667 275C14.5411 284.28 15 293.701 15 303" stroke="#0F96D9" stroke-width="3" stroke-linecap="round"/>
<path d="M42 272C41.9649 271.986 51.53 268.863 54 269.222C60.2883 270.137 65.7431 274.04 68.2778 279.889C69.9682 283.79 70.5252 295.632 68.5 299.278C68.3397 299.566 64.6014 293.091 64 292.222C60.3607 286.965 47.5945 299.589 51.6111 304.944C54.1119 308.279 64.2451 308 67.9444 308C72.3337 308 76.4774 308.477 72 304" stroke="#0F96D9" stroke-width="3" stroke-linecap="round"/>
<path d="M90 269C90 281.303 87.3354 297.339 92 309" stroke="#0F96D9" stroke-width="3" stroke-linecap="round"/>
<path d="M120 216C120 227.926 120 239.852 120 251.778C120 262.518 121.324 274.166 119.556 284.778C118.64 290.273 117.887 296.585 116.444 301.944C115.617 305.019 114.036 307.053 116 310" stroke="#0F96D9" stroke-width="3" stroke-linecap="round"/>
<path d="M141 271C141.326 275.076 143.257 303.467 150.222 302.833C157.093 302.209 162.592 294.394 163.778 288.167C164.175 286.08 164 283.89 164 281.778C164 279.704 164 285.926 164 288C164 294.127 162.868 302.718 165.444 308.444C167.915 313.936 176.42 306.455 179.389 304.5C189.091 298.111 194 288.2 194 277" stroke="#0F96D9" stroke-width="3" stroke-linecap="round"/>
<path d="M209 266C213.811 269.113 214.36 282.661 214.778 287.889C215.285 294.225 215 300.645 215 307" stroke="#0F96D9" stroke-width="3" stroke-linecap="round"/>
<path d="M209 250C210.249 249.167 210.21 250.21 211 251" stroke="#0F96D9" stroke-width="3" stroke-linecap="round"/>
<path d="M232 266C232 277.407 232 311.63 232 300.222C232 291.12 231.587 282.24 234.5 273.5C236.145 268.564 239.132 263.526 240.056 258.444C241.397 251.066 251.672 268.584 252.222 271.444C253.629 278.758 257.747 285.635 258 293.222C258.109 296.485 260 298.97 260 302" stroke="#0F96D9" stroke-width="3" stroke-linecap="round"/>
<path d="M285 260C275.611 265.523 270 279.463 270 289.944C270 303.685 286.103 298.594 293.333 294.222C301.749 289.134 303.418 281.969 301.944 272.389C300.623 263.8 295.145 262.858 288 260" stroke="#0F96D9" stroke-width="3" stroke-linecap="round"/>
<path d="M303 284C302.137 276.23 298 269.304 298 260.944C298 253.296 298 245.648 298 238C298 228.667 298 219.333 298 210" stroke="#0F96D9" stroke-width="3" stroke-linecap="round"/>
<path d="M100 337C89.2914 337.714 65.425 347.948 74.5556 362.889C78.2917 369.003 84.1865 369.293 90.5 370.556C98.7806 372.212 105.969 372.624 113 367" stroke="#0F96D9" stroke-width="3" stroke-linecap="round"/>
<path d="M145 339C142.776 334.997 141.056 334.778 136.778 336.222C133.543 337.315 123.167 340.557 124.056 345.444C125.689 354.428 145.674 354.299 152 357.778C158.53 361.369 137.96 372.326 134.556 372.944C132.929 373.24 122.866 373.378 127 372" stroke="#0F96D9" stroke-width="3" stroke-linecap="round"/>
<path d="M190 338C188.458 333.889 167 342.607 167 349C167 359.607 181.206 363.155 190.222 364C193.022 364.263 195.608 366.084 195.944 369.111C196.625 375.241 190.871 378.943 186.667 382.278C179.369 388.066 167.337 384 159 384" stroke="#0F96D9" stroke-width="3" stroke-linecap="round"/>
<path d="M62 516C67.4413 522.802 71.5648 535.584 73.3333 543.944C75.1106 552.346 74 561.848 74 570.444C74 577.269 81.099 583.453 82.7778 590C84.0414 594.928 85 600.884 85 606" stroke="#0F96D9" stroke-width="3" stroke-linecap="round"/>
<path d="M66 522C69.5624 525.206 74.2715 526.855 77.8889 530.111C85.6195 537.069 90.9848 545.393 97.2222 553.556C101.388 559.007 106.695 563.459 110.778 569C112.541 571.393 113.88 573.88 116 576" stroke="#0F96D9" stroke-width="3" stroke-linecap="round"/>
<path d="M117 505C117.731 515.969 118.911 526.489 119 537.556C119.092 548.961 122.162 559.995 122.944 571.333C123.455 578.735 120.502 591.502 126 597" stroke="#0F96D9" stroke-width="3" stroke-linecap="round"/>
<path d="M152 570C158.361 567.651 175.245 564.081 177.667 555.778C178.43 553.162 173.638 554.202 172.778 554.444C167.853 555.83 163.137 558.6 158.444 560.611C151.481 563.595 153 571.118 153 577.222C153 582.62 153.886 593.048 161.056 593.944C167.948 594.806 177.06 595.566 181 589" stroke="#0F96D9" stroke-width="3" stroke-linecap="round"/>
<path d="M192 554C195.452 554.384 197.442 561.569 198.444 564.056C201.221 570.941 203.606 578.495 209 583.889C212.217 587.106 217.977 589.988 222 592" stroke="#0F96D9" stroke-width="3" stroke-linecap="round"/>
<path d="M205 591C197.89 587.236 208.05 574.87 211 570.444C215.974 562.983 220.277 555.557 225 548" stroke="#0F96D9" stroke-width="3" stroke-linecap="round"/>
<path d="M248 499C248 522.556 248 546.111 248 569.667C248 575.717 250.244 589.135 247 594" stroke="#0F96D9" stroke-width="3" stroke-linecap="round"/>
<path d="M244 524C245.25 520.25 252.735 523.169 255.444 521.444C257.228 520.31 257.843 520 260 520" stroke="#0F96D9" stroke-width="3" stroke-linecap="round"/>
<path d="M283 584C282.428 578.277 276.661 583.665 277.611 585.944C279.179 589.707 286.972 585.078 287.889 582.556C290.151 576.335 279.149 584.339 280.667 584.556C281.912 584.733 282.335 581.975 281.444 582.611C279.791 583.792 280.453 584.516 282 584" stroke="#0F96D9" stroke-width="3" stroke-linecap="round"/>
<path d="M308 515C318.634 515 332.703 517.432 343 514" stroke="#0F96D9" stroke-width="3" stroke-linecap="round"/>
<path d="M327 518C328.203 525.216 331.836 531.289 332 539C332.157 546.4 332 553.82 332 561.222C332 567.535 332.245 576.153 330.222 582.222C327.468 590.484 313.303 585.01 308 582C300.224 577.587 307.264 568.56 310 564" stroke="#0F96D9" stroke-width="3" stroke-linecap="round"/>
<path d="M388 520C386.664 506.645 362.695 521.247 358.778 524.444C347 534.059 349.415 547.872 365.056 551C371.49 552.287 384.342 559.229 380.333 567.611C377.637 573.249 370.831 575.746 365.778 578.778C360.857 581.73 359.105 580.552 354 578" stroke="#0F96D9" stroke-width="3" stroke-linecap="round"/>
<path d="M299 661C300.192 678.887 306 695.93 306 714" stroke="#0F96D9" stroke-width="3" stroke-linecap="round"/>
<path d="M310 713C312.785 702.478 320.626 694.998 324.333 685.111C326.932 678.182 328.712 670.576 332 664" stroke="#0F96D9" stroke-width="3" stroke-linecap="round"/>
<path d="M336 696C337.493 692.019 370.091 697.182 365 687C361.344 679.689 345.904 687.738 341 691.222C336.33 694.54 329.15 698.473 331.222 705.444C334.985 718.102 356.419 714 366 714" stroke="#0F96D9" stroke-width="3" stroke-linecap="round"/>
<path d="M391 688C391 691.875 391.017 695.708 390.444 699.556C389.692 704.608 387 709.771 387 714.833C387 721.923 387.242 700.309 390 693.778C391.953 689.153 394.707 681.992 399.111 679.056C404.173 675.681 416.074 677.811 421 680" stroke="#0F96D9" stroke-width="3" stroke-linecap="round"/>
<path d="M452 683C440.328 683 419.448 688.823 418.056 703.444C417.493 709.353 417.581 714.156 423.222 717.222C431.823 721.896 448.424 719.812 457 716" stroke="#0F96D9" stroke-width="3" stroke-linecap="round"/>
<path d="M481 690C485.719 686.966 493.473 686.734 499 685.944C503.954 685.237 497.302 681 494.889 681C490.619 681 484.899 679.674 481.444 682.5C477.846 685.445 473.643 688.135 471.556 692.5C466.882 702.272 470.874 712.884 481.222 716.222C487.448 718.23 496.237 717.552 502.556 716.222C504.06 715.906 511.347 714.347 510 713" stroke="#0F96D9" stroke-width="3" stroke-linecap="round"/>
<path d="M536 636C529.676 637.405 527.339 653.247 526.556 658.444C524.921 669.287 525 679.961 525 690.889C525 700.9 524 710.925 524 721" stroke="#0F96D9" stroke-width="3" stroke-linecap="round"/>
<path d="M660 633V692" stroke="#0F96D9" stroke-width="3" stroke-linecap="round"/>
<path d="M636 629C640.656 625.614 652.884 628 658.389 628C666.98 628 674.061 628.138 682 632C687.053 634.458 693.149 636.656 694.111 642.667C695.606 652.01 698.013 661.348 693.056 670.333C682.421 689.609 665.649 690 646 690" stroke="#0F96D9" stroke-width="3" stroke-linecap="round"/>
<path d="M715 671C709.021 671 691.729 674.079 692 682.222C692.427 695.045 706.633 696.008 716.889 693.444C723.074 691.898 722.944 681.539 721.444 676.611C719.288 669.525 703.337 672.475 698 674" stroke="#0F96D9" stroke-width="3" stroke-linecap="round"/>
<path d="M749 674C743.393 674.4 735.489 675.685 730.778 679C725.81 682.496 730.214 692.04 733.611 694.889C739.886 700.151 750.529 701.384 758.444 699.944C762.571 699.194 755.891 692.485 755 691" stroke="#0F96D9" stroke-width="3" stroke-linecap="round"/>
<path d="M781 629C772.343 640.254 776 659.891 776 673.167C776 682.778 776 692.389 776 702" stroke="#0F96D9" stroke-width="3" stroke-linecap="round"/>
<path d="M774 677C774.571 671.289 785.908 667.293 789.889 664.667C793.439 662.325 795.079 658.921 798 656" stroke="#0F96D9" stroke-width="3" stroke-linecap="round"/>
<path d="M783 671C789.559 672.193 791.216 681.475 795.222 685.778C798.756 689.573 802.32 693.32 806 697" stroke="#0F96D9" stroke-width="3" stroke-linecap="round"/>
<path d="M825 674C830.637 674 855.609 678.568 850.556 666.778C846.759 657.919 825.271 668.946 821 674.222C814.515 682.233 822.816 694.223 830.778 697.556C834.645 699.174 849.421 699.737 851 695" stroke="#0F96D9" stroke-width="3" stroke-linecap="round"/>
<path d="M872 666C871.704 674.874 870 683.504 870 692.444C870 694.023 869.587 683.333 871.222 680C878.734 664.688 898.709 663 914 663" stroke="#0F96D9" stroke-width="3" stroke-linecap="round"/>
<path d="M745 284C741.646 284.839 744 319.332 744 324.556C744 329.244 743.646 315.11 744.5 310.5C746.869 297.707 740.895 282.103 749.222 271C755.495 262.636 766.055 263.277 775.333 264.778C786.092 266.518 790.398 271.612 788.889 282.556C786.608 299.092 770.567 297 758 297" stroke="#0F96D9" stroke-width="3" stroke-linecap="round"/>
<path d="M791 308C791.704 307.061 777.521 307.47 774.944 309.056C767.594 313.579 770.739 328.819 779.444 330.778C791.146 333.411 803.936 329.19 809 318.556C810.623 315.147 809.147 312.147 806.5 309.5C798.391 301.391 783.972 306.151 774 307" stroke="#0F96D9" stroke-width="3" stroke-linecap="round"/>
<path d="M834 307C830.385 303.787 821.86 308.229 824 313.222C825.732 317.264 830.414 318.963 833.778 321.556C835.994 323.264 840.841 324.891 842 327.5C847.645 340.201 824.397 338.199 818 335" stroke="#0F96D9" stroke-width="3" stroke-linecap="round"/>
<path d="M865 266C865 274.05 860.675 282.612 858.444 290.222C856.16 298.017 855 305.932 855 314.056C855 321.704 855 329.352 855 337" stroke="#0F96D9" stroke-width="3" stroke-linecap="round"/>
<path d="M849 282H871" stroke="#0F96D9" stroke-width="3" stroke-linecap="round"/>
<path d="M882 307C881.625 310.375 874.558 312.884 872.778 316.444C870.034 321.932 869.126 328.416 871 334.333C872.631 339.485 877.519 339 881.889 339C889.566 339 890.442 337.811 896.556 333.444C901.271 330.076 906 327.173 906 320.944C906 316.062 903.685 311.31 900.556 307.611C895.336 301.443 887.637 303.983 881 307" stroke="#0F96D9" stroke-width="3" stroke-linecap="round"/>
<path d="M907 322C909.275 324.559 906.008 333.89 905.778 337.111C905.173 345.58 903.736 353.811 902.778 362.222C901.865 370.238 900.222 383.88 890.111 384C878.679 384.136 866.688 381.063 867 367.333C867.183 359.274 872.595 360 879 360" stroke="#0F96D9" stroke-width="3" stroke-linecap="round"/>
<path d="M924 310C924 320.917 922.827 332.538 926.333 343.056C927.084 345.309 925 338.431 925 336.056C925 332.16 924.482 327.798 925.444 324C926.939 318.104 933.039 311.761 938.056 308.5C942.924 305.336 947.335 306 953 306" stroke="#0F96D9" stroke-width="3" stroke-linecap="round"/>
<path d="M963 326C966.659 320.013 975.376 319.459 980 313.778C988.91 302.831 965.055 308.945 961 311C949.496 316.831 944.006 329.811 949.222 341.667C952.862 349.938 965.674 347.163 972 344" stroke="#0F96D9" stroke-width="3" stroke-linecap="round"/>
<path d="M1020 312C1014.16 305.511 1001.23 311.298 995.667 316.5C986.276 325.285 1008.5 337.206 1014.33 340.556C1019.73 343.655 1029.73 349.387 1017.72 352.389C1010.36 354.229 1002.81 353.27 996 351" stroke="#0F96D9" stroke-width="3" stroke-linecap="round"/>
<path d="M1050 314C1037.8 316.218 1033.26 345.589 1042.61 352.444C1055.49 361.891 1098.09 357.192 1093.78 334.944C1090.19 316.451 1068.91 316 1054 316" stroke="#0F96D9" stroke-width="3" stroke-linecap="round"/>
<path d="M1097 338C1097 349.078 1092.5 360.737 1091.44 371.889C1090.72 379.553 1091 387.309 1091 395" stroke="#0F96D9" stroke-width="3" stroke-linecap="round"/>
<path d="M476 241C476.239 243.152 479.671 245.228 481 247" stroke="#CF0FD9" stroke-width="3" stroke-linecap="round"/>
<path d="M478 242C482.178 246.701 486.503 244.9 491.667 241.778C493.674 240.564 497.045 237.156 494.444 234.556C492.602 232.713 488.784 235.933 487 236.778C485.054 237.7 481.368 238.556 481.056 241.056C480.582 244.847 483.142 244.78 484.778 242C486.303 239.407 486.327 236 482.556 236C479.993 236 477.806 239.065 481 238" stroke="#CF0FD9" stroke-width="3" stroke-linecap="round"/>
<path d="M629 5C619.759 15.0809 614.776 29.3714 611 42.3333C608.402 51.2515 605.96 59.749 604.944 68.8889C604.383 73.9418 602.674 69.6385 603.556 66.1111C605.531 58.2074 610.394 49.4436 613.778 42C614.879 39.5776 614.799 37.5098 615.056 34.9444C615.374 31.7559 617.445 28.5143 618.556 25.5C620.817 19.3616 623.446 13.9977 626.389 8.11111C626.927 7.03494 628.055 0.583069 630.222 1.66667C635.62 4.36573 638.109 18.7192 640 23.7778C644.051 34.6165 649.687 44.4827 653.111 55.6111C655.149 62.2346 660.562 66.8105 662 74" stroke="#0F96D9" stroke-width="3" stroke-linecap="round"/>
<path d="M613 45C613.588 42.6496 629.01 42.9376 631.444 43C637.647 43.159 643.74 44 650 44" stroke="#0F96D9" stroke-width="3" stroke-linecap="round"/>
<path d="M663 5C667.119 5.45764 668.709 15.8125 669.944 18.7778C672.787 25.5995 675.063 32.7758 678.222 39.4444C682.062 47.55 685.079 55.8637 688.778 64C689.15 64.8189 691.617 71.2872 692.889 70.3333C693.567 69.8244 694.933 65.5982 695.222 64.5556C697.343 56.9191 701.146 49.3736 704.389 42.1667C704.729 41.411 704.769 37.6069 706 38.2222C709.428 39.9365 711.941 45.2625 713.5 48.5C715.844 53.3693 718.733 58.1731 721.556 62.7778C723.605 66.1217 724.851 68.9793 728.056 64.3333C736.745 51.7342 745.344 38.9059 753.444 25.9444C757.038 20.1945 758.476 13.8729 762 8" stroke="#0F96D9" stroke-width="3" stroke-linecap="round"/>
<path d="M804 10C796.871 6.70963 789.65 19.1353 783.889 21.0556C774.259 24.2654 777.71 37.6266 783.667 42.5C789.775 47.4974 797.693 49.9021 804.667 53.3889C809.312 55.7118 805.39 61.3902 803 64.2222C798.758 69.2492 791.68 74.8224 785.333 76.8889C776.066 79.9063 765.091 76.098 756 74" stroke="#0F96D9" stroke-width="3" stroke-linecap="round"/>
</svg>
